<?xml version="1.0" encoding="UTF-8" standalone="no"?>
<svg
   xmlns:dc="http://purl.org/dc/elements/1.1/"
   xmlns:cc="http://creativecommons.org/ns#"
   xmlns:rdf="http://www.w3.org/1999/02/22-rdf-syntax-ns#"
   xmlns:svg="http://www.w3.org/2000/svg"
   xmlns="http://www.w3.org/2000/svg"
   xmlns:sodipodi="http://sodipodi.sourceforge.net/DTD/sodipodi-0.dtd"
   xmlns:inkscape="http://www.inkscape.org/namespaces/inkscape"
   height="244.48659"
   version="1.1"
   width="244.48659"
   id="svg16"
   sodipodi:docname="textstorm.svg"
   inkscape:version="1.0.2-2 (e86c870879, 2021-01-15)"
   inkscape:export-filename="C:\Users\Dipanjan\OneDrive\DWIJOTTAM  &amp; DWIJORAJ\Graphic Design\MY CREATIONS\textstorm.png"
   inkscape:export-xdpi="858.09998"
   inkscape:export-ydpi="858.09998">
  <metadata
     id="metadata22">
    <rdf:RDF>
      <cc:Work
         rdf:about="">
        <dc:format>image/svg+xml</dc:format>
        <dc:type
           rdf:resource="http://purl.org/dc/dcmitype/StillImage" />
        <dc:title />
      </cc:Work>
    </rdf:RDF>
  </metadata>
  <defs
     id="defs20" />
  <sodipodi:namedview
     pagecolor="#ffffff"
     bordercolor="#666666"
     borderopacity="1"
     objecttolerance="10"
     gridtolerance="10"
     guidetolerance="10"
     inkscape:pageopacity="0"
     inkscape:pageshadow="2"
     inkscape:window-width="1767"
     inkscape:window-height="954"
     id="namedview18"
     showgrid="false"
     inkscape:zoom="1.8645833"
     inkscape:cx="160.06637"
     inkscape:cy="106.00673"
     inkscape:window-x="46"
     inkscape:window-y="10"
     inkscape:window-maximized="0"
     inkscape:current-layer="svg16"
     showborder="true"
     fit-margin-top="0"
     fit-margin-left="0"
     fit-margin-right="0"
     fit-margin-bottom="0"
     inkscape:document-rotation="0" />
  <path
     id="path857"
     style="fill:#dab29b;fill-opacity:1;stroke-width:10.8159"
     d="M 34.482422 -0.033203125 C 30.160519 -0.046519515 26.681641 3.9511045 26.681641 8.8984375 L 26.681641 19.242188 C 26.594721 20.027461 26.546875 20.823284 26.546875 21.630859 L 26.546875 108.1582 L 26.546875 151.42188 L 26.546875 216.31836 C 26.546875 228.21583 36.230507 237.94922 48.177734 237.94922 L 199.59961 237.94922 C 211.55116 237.94922 221.23242 228.21583 221.23242 216.31836 L 221.23242 151.42188 L 221.23242 108.1582 L 221.23242 64.894531 L 156.33594 0 L 48.177734 0 C 48.069005 2.1554961e-17 47.961864 0.0062057397 47.853516 0.0078125 L 34.482422 -0.033203125 z " />
  <path
     d="m 221.23207,64.895308 h -43.26355 c -11.95155,0 -21.63177,-9.734294 -21.63177,-21.63177 V 0 Z"
     fill="#95a5a6"
     id="path6"
     style="fill:#d39273;fill-opacity:0.60899651;stroke-width:10.8159" />
  <path
     id="rect879"
     style="fill:#282835;fill-opacity:1;stroke:none;stroke-width:0.402761;stroke-linecap:round;stroke-linejoin:round;stroke-miterlimit:4;stroke-dasharray:none"
     d="m 73.745051,130.73042 h -24.55573 c -0.76859,0 -1.38752,1.27298 -1.38752,2.85395 v 7.9899 c 0,1.58096 0.61893,2.85394 1.38752,2.85394 h 24.63049 z" />
  <path
     id="path882"
     style="fill:#282835;fill-opacity:1;stroke:none;stroke-width:0.493931;stroke-linecap:round;stroke-linejoin:round;stroke-miterlimit:4;stroke-dasharray:none"
     d="m 49.888311,113.09458 h 51.140579 c 1.15593,0 2.08651,1.27276 2.08651,2.85373 v 7.98895 c 0,1.58096 -0.93058,2.85373 -2.08651,2.85373 H 49.888311 c -1.15593,0 -2.08651,-1.27277 -2.08651,-2.85373 v -7.98895 c 0,-1.58097 0.93058,-2.85373 2.08651,-2.85373 z" />
  <path
     id="path884"
     style="fill:#282835;fill-opacity:1;stroke:none;stroke-width:0.599262;stroke-linecap:round;stroke-linejoin:round;stroke-miterlimit:4;stroke-dasharray:none"
     d="m 86.911871,94.691034 h -36.03866 c -1.7015,0 -3.07141,1.272979 -3.07141,2.853945 v 7.987991 c 0,1.58097 1.36991,2.85395 3.07141,2.85395 h 36.03866 z" />
  <path
     id="path1636"
     style="fill:#282835;fill-opacity:1;stroke:none;stroke-width:0.87611;stroke-linecap:round;stroke-linejoin:round;stroke-miterlimit:4;stroke-dasharray:none"
     d="M 147.85042,94.691034 H 92.816721 v 13.695886 h 55.033699 z" />
  <path
     id="path1646"
     style="fill:#282835;fill-opacity:1;stroke:none;stroke-width:0.717778;stroke-linecap:round;stroke-linejoin:round;stroke-miterlimit:4;stroke-dasharray:none"
     d="m 154.27152,94.872411 v 13.333129 h 19.88157 c 2.50748,0 4.5263,-1.23926 4.5263,-2.77836 v -7.776414 c 0,-1.539091 -2.01882,-2.778355 -4.5263,-2.778355 z" />
  <path
     id="path886"
     style="fill:#282824;fill-opacity:1;stroke:none;stroke-width:0.512587;stroke-linecap:round;stroke-linejoin:round;stroke-miterlimit:4;stroke-dasharray:none"
     d="m 50.021411,76.546161 h 54.402779 c 1.22967,0 2.21962,1.288534 2.21962,2.889088 v 8.087929 c 0,1.600557 -0.98995,2.88909 -2.21962,2.88909 H 50.021411 c -1.22967,0 -2.21961,-1.288533 -2.21961,-2.88909 v -8.087929 c 0,-1.600554 0.98994,-2.889088 2.21961,-2.889088 z" />
  <path
     id="path892"
     style="fill:#282835;fill-opacity:1;stroke:none;stroke-width:0.686748;stroke-linecap:round;stroke-linejoin:round;stroke-miterlimit:4;stroke-dasharray:none"
     d="m 51.835321,148.4993 h 33.16346 c 2.23457,0 4.03352,1.27276 4.03352,2.85373 v 7.98895 c 0,1.58096 -1.79895,2.85373 -4.03352,2.85373 h -33.16346 c -2.23457,0 -4.03352,-1.27277 -4.03352,-2.85373 v -7.98895 c 0,-1.58097 1.79895,-2.85373 4.03352,-2.85373 z"
     sodipodi:nodetypes="sssssssss" />
  <circle
     style="fill:#ec9900;fill-opacity:1;stroke-width:0;stroke-linecap:round;stroke-linejoin:round"
     id="path1523"
     cx="60.871506"
     cy="15.016759"
     r="5.5436697" />
  <circle
     style="fill:#d83a56;fill-opacity:1;stroke-width:0;stroke-linecap:round;stroke-linejoin:round"
     id="circle1525"
     cx="43.085567"
     cy="15.016759"
     r="5.5436697" />
  <circle
     style="fill:#2fbf2f;fill-opacity:1;stroke-width:0;stroke-linecap:round;stroke-linejoin:round"
     id="circle1527"
     cx="78.657448"
     cy="15.016759"
     r="5.5436697" />
  <path
     id="path1551"
     style="fill:#282835;fill-opacity:1;stroke:none;stroke-width:0.686748;stroke-linecap:round;stroke-linejoin:round;stroke-miterlimit:4;stroke-dasharray:none"
     d="M 82.405151,130.73111 H 115.5686 c 2.23457,0 4.03353,1.27276 4.03353,2.85373 v 7.98895 c 0,1.58096 -1.79896,2.85373 -4.03353,2.85373 H 82.405151 c -2.23457,0 -4.03352,-1.27277 -4.03352,-2.85373 v -7.98895 c 0,-1.58097 1.79895,-2.85373 4.03352,-2.85373 z"
     sodipodi:nodetypes="sssssssss" />
  <path
     id="path1858"
     style="fill:#5e454b;fill-opacity:1;stroke-width:10.8159"
     d="M 26.546875 194.14453 L 26.546875 216.31836 C 26.546875 228.21583 36.230507 237.94922 48.177734 237.94922 L 199.59961 237.94922 C 211.55116 237.94922 221.23242 228.21583 221.23242 216.31836 L 221.23242 194.14453 L 26.546875 194.14453 z " />
  <path
     d="M 103.54366,204.88042 H 89.569661 c -1.285189,-3e-5 -2.329157,-1.04402 -2.32913,-2.32927 0,-1.28618 1.04405,-2.3291 2.329404,-2.32893 l 13.973995,2e-5 c 1.28621,-2e-5 2.32922,1.04298 2.32914,2.32924 -6e-5,1.28516 -1.04298,2.32919 -2.32894,2.32938 z m 0,0"
     fill="#ffffff"
     id="path2033"
     style="stroke-width:0.263834" />
  <path
     d="m 96.557153,228.16999 c -1.286155,6e-5 -2.329157,-1.04292 -2.329048,-2.32816 l -5.5e-5,-23.29068 c 2.8e-5,-1.28621 1.043003,-2.32918 2.328938,-2.3294 1.285162,0 2.329181,1.043 2.329131,2.32924 l -3e-5,23.29064 c 3e-5,1.28522 -1.043993,2.32814 -2.32932,2.328 z m 0,0"
     fill="#ffffff"
     id="path2035"
     style="stroke-width:0.263834" />
  <path
     d="m 115.18638,228.17002 c -0.40737,-8e-5 -0.82161,-0.10739 -1.19443,-0.33289 -1.10388,-0.66154 -1.4604,-2.0911 -0.79878,-3.19488 l 13.97401,-23.29065 c 0.6615,-1.10391 2.09398,-1.46057 3.19589,-0.79872 1.10389,0.66156 1.46038,2.09112 0.79878,3.19592 l -13.97402,23.28963 c -0.438,0.72864 -1.20707,1.13313 -2.0017,1.13137 z m 0,0"
     fill="#ffffff"
     id="path2037"
     style="stroke-width:0.263834" />
  <path
     d="m 129.16553,228.17005 c -0.79154,-6e-5 -1.56239,-0.403 -1.99835,-1.12955 L 113.1932,203.75087 c -0.66162,-1.10381 -0.30505,-2.53431 0.79875,-3.1959 1.1018,-0.66364 2.53423,-0.30508 3.19588,0.7987 l 13.97399,23.29068 c 0.66166,1.10377 0.30509,2.53427 -0.79872,3.19586 -0.37536,0.2225 -0.78934,0.32986 -1.19768,0.32973 z m 0,0"
     fill="#ffffff"
     id="path2039"
     style="stroke-width:0.263834" />
  <path
     d="m 154.78226,204.88039 -13.97395,3e-5 c -1.28519,0 -2.32921,-1.04402 -2.32913,-2.32924 0,-1.28618 1.044,-2.32916 2.32891,-2.32938 l 13.974,3e-5 c 1.2862,-3e-5 2.32915,1.04292 2.32912,2.32924 -5e-5,1.28516 -1.04305,2.3291 -2.32945,2.32896 z m 0,0"
     fill="#ffffff"
     id="path2041"
     style="stroke-width:0.263834" />
  <path
     d="m 147.7958,228.17002 c -1.28621,0 -2.32921,-1.04298 -2.3291,-2.32822 v -23.29065 c 3e-5,-1.28618 1.043,-2.32915 2.32894,-2.32937 1.28516,0 2.32913,1.04294 2.32907,2.32917 l 3e-5,23.29071 c -3e-5,1.28516 -1.04399,2.32814 -2.32932,2.32797 z m 0,0"
     fill="#ffffff"
     id="path2043"
     style="stroke-width:0.263834" />
</svg>
