<?xml version="1.0" encoding="UTF-8" standalone="no"?>
<svg
   xmlns:dc="http://purl.org/dc/elements/1.1/"
   xmlns:cc="http://creativecommons.org/ns#"
   xmlns:rdf="http://www.w3.org/1999/02/22-rdf-syntax-ns#"
   xmlns:svg="http://www.w3.org/2000/svg"
   xmlns="http://www.w3.org/2000/svg"
   xmlns:xlink="http://www.w3.org/1999/xlink"
   xmlns:sodipodi="http://sodipodi.sourceforge.net/DTD/sodipodi-0.dtd"
   xmlns:inkscape="http://www.inkscape.org/namespaces/inkscape"
   height="236.98245"
   version="1.1"
   width="236.98245"
   id="svg16"
   sodipodi:docname="textstorm.svg"
   inkscape:version="1.0.2-2 (e86c870879, 2021-01-15)"
   inkscape:export-filename="C:\Users\Dipanjan\OneDrive\DWIJOTTAM  &amp; DWIJORAJ\Graphic Design\MY CREATIONS\textstorm.png"
   inkscape:export-xdpi="858.09998"
   inkscape:export-ydpi="858.09998">
  <metadata
     id="metadata22">
    <rdf:RDF>
      <cc:Work
         rdf:about="">
        <dc:format>image/svg+xml</dc:format>
        <dc:type
           rdf:resource="http://purl.org/dc/dcmitype/StillImage" />
        <dc:title></dc:title>
      </cc:Work>
    </rdf:RDF>
  </metadata>
  <defs
     id="defs20">
    <linearGradient
       inkscape:collect="always"
       id="linearGradient1298">
      <stop
         style="stop-color:#ff7575;stop-opacity:1"
         offset="0"
         id="stop1294" />
      <stop
         style="stop-color:#d65959;stop-opacity:1"
         offset="1"
         id="stop1296" />
    </linearGradient>
    <linearGradient
       inkscape:collect="always"
       xlink:href="#linearGradient1298"
       id="linearGradient1300"
       x1="126.5143"
       y1="153.5827"
       x2="75.697426"
       y2="64.119324"
       gradientUnits="userSpaceOnUse" />
  </defs>
  <sodipodi:namedview
     pagecolor="#ffffff"
     bordercolor="#666666"
     borderopacity="1"
     objecttolerance="10"
     gridtolerance="10"
     guidetolerance="10"
     inkscape:pageopacity="0"
     inkscape:pageshadow="2"
     inkscape:window-width="1767"
     inkscape:window-height="954"
     id="namedview18"
     showgrid="false"
     inkscape:zoom="2.636919"
     inkscape:cx="91.444678"
     inkscape:cy="174.31813"
     inkscape:window-x="25"
     inkscape:window-y="10"
     inkscape:window-maximized="0"
     inkscape:current-layer="svg16"
     showborder="true"
     fit-margin-top="0"
     fit-margin-left="0"
     fit-margin-right="0"
     fit-margin-bottom="0"
     inkscape:document-rotation="0"
     inkscape:object-nodes="false"
     inkscape:snap-others="false" />
  <g
     id="g1615">
    <g
       id="g1588">
      <g
         id="g1562">
        <g
           id="g1537">
          <g
             id="g1513">
            <g
               id="g1490">
              <g
                 id="g1468">
                <g
                   id="g1447">
                  <g
                     id="g1427">
                    <g
                       id="g1408">
                      <path
                         style="color:#000000;font-style:normal;font-variant:normal;font-weight:normal;font-stretch:normal;font-size:medium;line-height:normal;font-family:sans-serif;font-variant-ligatures:normal;font-variant-position:normal;font-variant-caps:normal;font-variant-numeric:normal;font-variant-alternates:normal;font-variant-east-asian:normal;font-feature-settings:normal;font-variation-settings:normal;text-indent:0;text-align:start;text-decoration:none;text-decoration-line:none;text-decoration-style:solid;text-decoration-color:#000000;letter-spacing:normal;word-spacing:normal;text-transform:none;writing-mode:lr-tb;direction:ltr;text-orientation:mixed;dominant-baseline:auto;baseline-shift:baseline;text-anchor:start;white-space:normal;shape-padding:0;shape-margin:0;inline-size:0;clip-rule:nonzero;display:inline;overflow:visible;visibility:visible;isolation:auto;mix-blend-mode:normal;color-interpolation:sRGB;color-interpolation-filters:linearRGB;solid-color:#000000;solid-opacity:1;vector-effect:none;fill:url(#linearGradient1300);fill-opacity:1;fill-rule:nonzero;stroke:none;stroke-width:10.1998;stroke-linecap:butt;stroke-linejoin:miter;stroke-miterlimit:4;stroke-dasharray:none;stroke-dashoffset:0;stroke-opacity:1;color-rendering:auto;image-rendering:auto;shape-rendering:auto;text-rendering:auto;enable-background:accumulate;stop-color:#000000"
                         d="M 43.319007,7.0203966 C 33.72956,7.0203977 24.222962,15.124741 24.222962,24.5198 c 0,0 -0.120948,53.041429 -0.120948,84.19069 v 40.66393 60.99683 c 0,11.18253 8.690741,20.33103 19.412983,20.33103 H 179.41115 c 10.7261,0 19.41473,-9.1485 19.41473,-20.33103 V 149.37442 108.71049 68.046573 L 140.58342,7.0516031 c -35.93426,-0.051648 -25.99061,0.084515 -60.979109,-0.03121 z"
                         id="path1278" />
                      <path
                         style="color:#000000;font-style:normal;font-variant:normal;font-weight:normal;font-stretch:normal;font-size:medium;line-height:normal;font-family:sans-serif;font-variant-ligatures:normal;font-variant-position:normal;font-variant-caps:normal;font-variant-numeric:normal;font-variant-alternates:normal;font-variant-east-asian:normal;font-feature-settings:normal;font-variation-settings:normal;text-indent:0;text-align:start;text-decoration:none;text-decoration-line:none;text-decoration-style:solid;text-decoration-color:#000000;letter-spacing:normal;word-spacing:normal;text-transform:none;writing-mode:lr-tb;direction:ltr;text-orientation:mixed;dominant-baseline:auto;baseline-shift:baseline;text-anchor:start;white-space:normal;shape-padding:0;shape-margin:0;inline-size:0;clip-rule:nonzero;display:inline;overflow:visible;visibility:visible;isolation:auto;mix-blend-mode:normal;color-interpolation:sRGB;color-interpolation-filters:linearRGB;solid-color:#000000;solid-opacity:1;vector-effect:none;fill:#363638;fill-opacity:1;fill-rule:nonzero;stroke:none;stroke-width:1.04275;stroke-linecap:butt;stroke-linejoin:miter;stroke-miterlimit:4;stroke-dasharray:none;stroke-dashoffset:0;stroke-opacity:1;color-rendering:auto;image-rendering:auto;shape-rendering:auto;text-rendering:auto;enable-background:accumulate;stop-color:#000000"
                         d="m 43.319933,1.9205218 c -12.462828,1.3e-6 -24.197156,9.7630582 -24.197156,22.5984042 -2.9e-5,0.01283 -0.12016,53.033395 -0.12016,84.192084 v 40.66329 60.99695 c 0,13.82485 10.889684,25.43135 24.512832,25.43135 H 179.41136 c 13.62598,0 24.51488,-11.60714 24.51488,-25.43135 V 149.3743 108.71101 66.002964 l -61.15785,-64.0478196 -2.17715,-0.00408 c -35.94579,-0.051664 -25.99202,0.085142 -60.970482,-0.03055 h -0.0081 z m 0,10.1994242 h 36.284532 c 33.716685,0.111465 27.209175,-0.0089 58.795365,0.02851 l 55.32698,57.942014 v 38.62054 40.66329 60.99695 c 0,8.54085 -6.48919,15.23192 -14.31545,15.23192 H 43.515449 c -7.821336,0 -14.313408,-6.69172 -14.313408,-15.23192 V 149.3743 108.71101 c 0,-31.136059 0.12016,-84.179868 0.12016,-84.179868 v -0.0062 -0.0062 c 0,-5.954772 7.281667,-12.39898 13.997732,-12.39898 z"
                         id="path1280" />
                      <path
                         id="path882"
                         style="fill:#333333;fill-opacity:0.83737;stroke:none;stroke-width:0.463778;stroke-linecap:round;stroke-linejoin:round;stroke-miterlimit:4;stroke-dasharray:none"
                         d="m 51.526478,110.92658 h 48.018546 c 1.085366,0 1.959146,1.19506 1.959146,2.67951 v 7.50125 c 0,1.48444 -0.87378,2.67951 -1.959146,2.67951 H 51.526478 c -1.085363,0 -1.959134,-1.19507 -1.959134,-2.67951 v -7.50125 c 0,-1.48445 0.873771,-2.67951 1.959134,-2.67951 z" />
                      <path
                         id="path884"
                         style="fill:#333333;fill-opacity:0.83737;stroke:none;stroke-width:0.562679;stroke-linecap:round;stroke-linejoin:round;stroke-miterlimit:4;stroke-dasharray:none"
                         d="M 86.28983,92.041754 H 52.451251 c -1.597627,0 -2.883907,1.195266 -2.883907,2.679714 v 7.500352 c 0,1.48446 1.28628,2.67971 2.883907,2.67971 H 86.28983 Z" />
                      <path
                         id="path1636"
                         style="fill:#333333;fill-opacity:0.83737;stroke:none;stroke-width:0.822625;stroke-linecap:round;stroke-linejoin:round;stroke-miterlimit:4;stroke-dasharray:none"
                         d="M 143.50822,92.041753 H 91.834202 v 12.859777 h 51.674018 z" />
                      <path
                         id="path1646"
                         style="fill:#333333;fill-opacity:0.83737;stroke:none;stroke-width:0.673959;stroke-linecap:round;stroke-linejoin:round;stroke-miterlimit:4;stroke-dasharray:none"
                         d="m 149.53733,92.21206 v 12.51917 h 18.66784 c 2.35439,0 4.24998,-1.16361 4.24998,-2.60875 v -7.301677 c 0,-1.445133 -1.89559,-2.608743 -4.24998,-2.608743 z" />
                      <path
                         id="path886"
                         style="fill:#333333;fill-opacity:0.83737;stroke:none;stroke-width:0.481295;stroke-linecap:round;stroke-linejoin:round;stroke-miterlimit:4;stroke-dasharray:none"
                         d="m 51.652476,72.995585 c -1.154602,-1e-6 -2.085132,1.209481 -2.085132,2.712324 v 7.594143 c 0,1.502846 0.93053,2.714158 2.085132,2.714158 h 51.081204 c 1.1546,0 2.0833,-1.211312 2.0833,-2.714158 v -7.594143 c 0,-1.502843 -0.9287,-2.712324 -2.0833,-2.712324 z" />
                      <path
                         id="path892"
                         style="fill:#333333;fill-opacity:0.83737;stroke:none;stroke-width:0.644824;stroke-linecap:round;stroke-linejoin:round;stroke-miterlimit:4;stroke-dasharray:none"
                         d="M 53.354628,148.69722 H 84.49353 c 2.098155,0 3.787282,1.19506 3.787282,2.67953 v 7.50122 c 0,1.48446 -1.689127,2.67954 -3.787282,2.67954 H 53.354628 c -2.098156,0 -3.787284,-1.19508 -3.787284,-2.67954 v -7.50122 c 0,-1.48447 1.689128,-2.67953 3.787284,-2.67953 z"
                         sodipodi:nodetypes="sssssssss" />
                      <circle
                         style="fill:#dc9725;fill-opacity:1;stroke-width:0;stroke-linecap:round;stroke-linejoin:round"
                         id="path1523"
                         cx="60.794952"
                         cy="26.801682"
                         r="5.2052407" />
                      <circle
                         style="fill:#b4243c;fill-opacity:1;stroke-width:0;stroke-linecap:round;stroke-linejoin:round"
                         id="circle1525"
                         cx="44.094818"
                         cy="26.801682"
                         r="5.2052407" />
                      <circle
                         style="fill:#48bd48;fill-opacity:0.65625;stroke-width:0;stroke-linecap:round;stroke-linejoin:round"
                         id="circle1527"
                         cx="77.49511"
                         cy="26.801682"
                         r="5.2052407" />
                      <path
                         id="rect879"
                         style="fill:#333333;fill-opacity:0.83737;stroke:none;stroke-width:0.460352;stroke-linecap:round;stroke-linejoin:round;stroke-miterlimit:4;stroke-dasharray:none"
                         d="M 85.663919,129.81062 H 51.497903 c -1.069395,0 -1.930559,1.19526 -1.930559,2.67971 v 7.50213 c 0,1.48446 0.861164,2.67971 1.930559,2.67971 h 34.270039 z" />
                      <path
                         id="path1646-9"
                         style="fill:#333333;fill-opacity:0.83737;stroke:none;stroke-width:0.855802;stroke-linecap:round;stroke-linejoin:round;stroke-miterlimit:4;stroke-dasharray:none"
                         d="m 89.471716,129.98181 v 12.51917 h 32.114754 c 3.79629,0 4.83847,-1.16359 4.83847,-2.60875 v -7.30167 c 0,-1.44514 -0.79039,-2.60875 -4.58669,-2.60875 z"
                         sodipodi:nodetypes="ccssssc" />
                      <path
                         id="path1167"
                         style="fill:#333333;fill-opacity:0.83737;stroke:none;stroke-width:0.562679;stroke-linecap:round;stroke-linejoin:round;stroke-miterlimit:4;stroke-dasharray:none"
                         d="M 86.28983,167.58303 H 52.451251 c -1.597627,0 -2.883907,1.19527 -2.883907,2.67973 v 7.50034 c 0,1.48445 1.28628,2.67973 2.883907,2.67973 H 86.28983 Z" />
                      <path
                         id="path1646-9-4"
                         style="fill:#333333;fill-opacity:0.83737;stroke:none;stroke-width:0.855802;stroke-linecap:round;stroke-linejoin:round;stroke-miterlimit:4;stroke-dasharray:none"
                         d="m 89.122423,167.75335 v 12.51917 h 32.114747 c 3.7963,0 4.83848,-1.16361 4.83848,-2.60875 v -7.30169 c 0,-1.44513 -0.79039,-2.60873 -4.58668,-2.60873 z"
                         sodipodi:nodetypes="ccssssc" />
                      <path
                         d="M 203.92869,76.240204 161.66328,75.918039 C 147.23481,75.808066 135.64097,63.577794 135.75407,48.738561 l 0.36025,-46.8294696 c 2.48685,0 2.02034,0.022889 6.38154,0.022889 L 203.9941,66.309791 Z"
                         fill="#95a5a6"
                         id="path6"
                         style="fill:#363638;fill-opacity:1;stroke:none;stroke-width:10.8191;stroke-miterlimit:4;stroke-dasharray:none;stroke-opacity:1"
                         sodipodi:nodetypes="csscccc" />
                    </g>
                  </g>
                </g>
              </g>
            </g>
          </g>
        </g>
      </g>
    </g>
  </g>
</svg>
